<?xml version="1.0" standalone="no"?>
<!DOCTYPE svg PUBLIC "-//W3C//DTD SVG 20010904//EN"
 "http://www.w3.org/TR/2001/REC-SVG-20010904/DTD/svg10.dtd">
<svg version="1.0" xmlns="http://www.w3.org/2000/svg"
 width="370.000000pt" height="370.000000pt" viewBox="0 0 370.000000 370.000000"
 preserveAspectRatio="xMidYMid meet">
<metadata>
Created by potrace 1.14, written by Peter Selinger 2001-2017
</metadata>
<g transform="translate(0.000000,370.000000) scale(0.100000,-0.100000)"
fill="#000000" stroke="none">
<path d="M1215 3065 c-22 -8 -54 -15 -72 -15 -51 0 -75 -14 -155 -88 l-76 -70
32 -17 c25 -14 39 -15 69 -7 33 9 39 8 51 -10 12 -17 21 -20 56 -14 30 5 42 3
46 -7 3 -8 1 -100 -5 -206 l-10 -192 -31 -39 c-18 -22 -40 -40 -50 -40 -10 0
-50 -16 -89 -35 -39 -19 -76 -35 -83 -35 -9 0 -9 -3 2 -11 10 -6 56 -8 128 -3
l112 6 0 -50 c0 -46 -30 -187 -44 -211 -4 -6 -18 -11 -32 -11 -21 0 -73 -23
-148 -67 -29 -17 -120 -17 -109 0 4 6 8 28 10 47 1 19 4 60 8 90 3 30 8 81 10
113 3 32 11 70 19 85 7 15 19 72 25 127 7 55 19 121 28 147 16 53 14 99 -4
106 -7 2 -13 -2 -13 -10 0 -7 -16 -44 -35 -82 -37 -74 -85 -212 -85 -246 0
-11 -6 -23 -14 -26 -8 -3 -12 -13 -9 -24 3 -10 -2 -40 -11 -67 -8 -26 -23
-111 -32 -188 -8 -76 -22 -152 -30 -167 -9 -18 -14 -62 -14 -135 0 -59 -4
-114 -9 -121 -5 -8 -1 -43 10 -85 23 -86 24 -130 4 -147 -8 -7 -15 -18 -15
-25 0 -18 -67 -75 -88 -75 -24 -1 -69 -40 -80 -70 -13 -34 3 -66 43 -85 63
-29 125 -12 166 47 13 18 31 39 41 46 24 17 81 92 167 217 72 105 168 225 180
225 11 0 14 -107 12 -495 0 -184 -20 -302 -56 -351 l-24 -31 65 -66 c48 -49
73 -68 100 -73 64 -12 64 -11 59 342 -2 171 -9 323 -15 338 -5 14 -6 26 -1 26
14 0 31 516 22 705 0 11 1 97 3 191 2 93 1 188 -3 210 -4 21 -3 64 2 94 4 31
4 116 0 190 l-8 135 26 22 c14 12 50 32 80 46 76 33 82 43 59 93 -27 62 -98
80 -185 49z m-115 -1240 c0 -39 -26 -92 -49 -100 -11 -3 -23 -15 -26 -26 -4
-11 -40 -55 -80 -98 -40 -43 -78 -88 -84 -99 -12 -23 -69 -57 -78 -48 -6 5 -4
90 4 238 5 105 16 118 103 119 30 0 80 8 110 19 80 26 100 25 100 -5z"/>
<path d="M2432 3017 c-41 -21 -43 -23 -37 -57 8 -46 -10 -119 -46 -192 -16
-32 -29 -64 -29 -71 0 -8 -22 -49 -50 -91 -27 -42 -50 -81 -50 -87 0 -6 -17
-32 -38 -58 -21 -25 -41 -53 -45 -62 -12 -36 -185 -277 -241 -336 -53 -58 -58
-67 -62 -115 -2 -29 -4 -57 -4 -63 -2 -26 23 -102 41 -124 16 -20 25 -23 56
-18 20 4 48 18 63 32 14 14 33 25 43 25 9 0 20 6 24 13 10 15 168 95 206 103
57 13 30 -45 -88 -186 -38 -46 -89 -104 -113 -129 -23 -24 -45 -55 -48 -68 -4
-12 -12 -23 -19 -23 -7 0 -18 -12 -24 -27 -6 -16 -36 -43 -66 -63 -30 -19 -55
-38 -55 -42 0 -7 -97 -122 -157 -186 -18 -18 -33 -40 -33 -48 0 -8 -27 -41
-59 -73 -46 -44 -62 -68 -71 -104 -12 -44 -10 -49 20 -101 17 -31 30 -66 29
-78 -4 -48 34 -103 67 -96 33 6 55 53 73 160 11 58 28 123 39 144 11 22 25 50
31 64 17 39 40 70 129 180 46 57 88 113 94 126 6 12 20 25 32 28 15 4 31 24
46 57 14 28 36 59 50 67 14 9 72 59 130 112 58 52 121 103 140 112 94 44 219
176 220 230 0 57 -109 138 -187 138 -21 0 -81 -11 -133 -25 -104 -27 -210 -33
-210 -12 0 6 9 23 20 37 11 14 20 33 20 43 0 10 32 52 71 93 51 54 69 80 67
97 -2 16 3 23 20 25 20 3 26 13 23 34 0 4 8 10 19 13 11 4 20 9 20 13 0 4 34
43 76 87 88 94 157 187 185 250 11 24 24 47 29 50 6 3 10 23 10 43 0 32 -9 46
-72 109 -44 45 -80 73 -93 72 -11 0 -39 -10 -63 -22z"/>
<path d="M1924 2799 c-19 -21 -19 -21 6 -18 14 2 26 12 28 22 5 23 -11 22 -34
-4z"/>
<path d="M1826 2754 c-36 -25 -44 -26 -110 -20 -52 5 -76 3 -90 -7 -17 -12
-15 -16 23 -50 30 -27 50 -37 74 -37 52 1 125 41 166 93 11 14 11 20 1 32 -16
20 -19 19 -64 -11z"/>
<path d="M920 2725 c-9 -11 -10 -19 -3 -26 13 -13 35 12 24 29 -6 10 -11 9
-21 -3z"/>
<path d="M2660 1555 c-14 -7 -41 -21 -59 -30 -19 -8 -49 -26 -67 -40 -17 -13
-44 -27 -60 -31 -16 -4 -41 -17 -56 -29 -26 -22 -151 -67 -218 -79 -19 -3 -54
-16 -76 -28 l-41 -22 20 -34 c16 -26 41 -44 112 -78 51 -24 99 -44 106 -44 7
0 41 16 76 35 35 19 75 35 88 35 17 0 25 6 25 18 0 34 34 112 52 118 9 3 40
21 67 40 28 19 60 34 71 34 35 0 97 -37 163 -100 89 -83 170 -127 251 -135 88
-10 116 7 116 68 0 54 -18 88 -55 107 -17 8 -68 38 -115 66 -211 128 -333 168
-400 129z"/>
<path d="M2552 1183 c-8 -3 9 -28 48 -70 69 -73 101 -121 120 -176 11 -37 11
-40 -16 -68 -16 -16 -40 -32 -54 -36 -14 -3 -33 -13 -44 -22 -12 -11 -37 -16
-80 -16 -75 1 -194 14 -221 25 -11 4 -40 13 -65 20 -25 6 -69 23 -97 37 -52
24 -84 27 -89 8 -4 -13 76 -76 190 -148 50 -33 102 -69 116 -82 49 -44 307
-59 351 -19 9 8 50 20 89 26 59 9 85 19 137 54 36 24 92 53 124 65 86 32 93
42 75 120 -22 91 -51 114 -153 123 -110 10 -138 19 -226 75 -43 27 -92 54
-110 61 -18 6 -40 16 -49 21 -19 10 -26 10 -46 2z"/>
</g>
</svg>
